<svg xmlns="http://www.w3.org/2000/svg" width="150" viewBox="0 0 150 37.5" height="37.5" version="1.0"><g fill="#E3FF59"><g><g><path d="M 4.546875 -3.625 C 4.972656 -3.550781 5.3125 -3.359375 5.5625 -3.046875 C 5.820312 -2.742188 5.953125 -2.351562 5.953125 -1.875 C 5.953125 -1.269531 5.757812 -0.804688 5.375 -0.484375 C 5 -0.160156 4.515625 0 3.921875 0 L 1.1875 0 C 1.132812 0 1.085938 -0.0195312 1.046875 -0.0625 C 1.003906 -0.101562 0.984375 -0.148438 0.984375 -0.203125 L 0.984375 -6.75 C 0.984375 -6.800781 1.003906 -6.84375 1.046875 -6.875 C 1.085938 -6.914062 1.132812 -6.9375 1.1875 -6.9375 L 3.859375 -6.9375 C 4.390625 -6.9375 4.8125 -6.785156 5.125 -6.484375 C 5.445312 -6.179688 5.609375 -5.773438 5.609375 -5.265625 C 5.609375 -4.890625 5.515625 -4.550781 5.328125 -4.25 C 5.140625 -3.945312 4.878906 -3.738281 4.546875 -3.625 Z M 5.1875 -5.265625 C 5.1875 -5.660156 5.066406 -5.972656 4.828125 -6.203125 C 4.585938 -6.429688 4.25 -6.546875 3.8125 -6.546875 L 1.40625 -6.546875 L 1.40625 -3.765625 L 3.8125 -3.765625 C 4.21875 -3.765625 4.546875 -3.894531 4.796875 -4.15625 C 5.054688 -4.414062 5.1875 -4.785156 5.1875 -5.265625 Z M 3.875 -0.390625 C 4.375 -0.390625 4.773438 -0.515625 5.078125 -0.765625 C 5.378906 -1.015625 5.53125 -1.382812 5.53125 -1.875 C 5.53125 -2.363281 5.378906 -2.734375 5.078125 -2.984375 C 4.773438 -3.234375 4.375 -3.359375 3.875 -3.359375 L 1.40625 -3.359375 L 1.40625 -0.390625 Z M 3.875 -0.390625" transform="translate(8.496 24.742)"/></g></g></g><g fill="#E3FF59"><g><g><path d="M 4.9375 -0.390625 C 4.988281 -0.390625 5.03125 -0.367188 5.0625 -0.328125 C 5.101562 -0.296875 5.125 -0.253906 5.125 -0.203125 C 5.125 -0.140625 5.101562 -0.0859375 5.0625 -0.046875 C 5.03125 -0.015625 4.988281 0 4.9375 0 L 1.1875 0 C 1.132812 0 1.085938 -0.0195312 1.046875 -0.0625 C 1.003906 -0.101562 0.984375 -0.148438 0.984375 -0.203125 L 0.984375 -6.75 C 0.984375 -6.800781 1.003906 -6.84375 1.046875 -6.875 C 1.085938 -6.914062 1.132812 -6.9375 1.1875 -6.9375 L 4.9375 -6.9375 C 4.988281 -6.9375 5.03125 -6.914062 5.0625 -6.875 C 5.101562 -6.84375 5.125 -6.800781 5.125 -6.75 C 5.125 -6.6875 5.101562 -6.632812 5.0625 -6.59375 C 5.03125 -6.5625 4.988281 -6.546875 4.9375 -6.546875 L 1.40625 -6.546875 L 1.40625 -3.78125 L 4.484375 -3.78125 C 4.535156 -3.78125 4.582031 -3.757812 4.625 -3.71875 C 4.664062 -3.675781 4.6875 -3.628906 4.6875 -3.578125 C 4.6875 -3.523438 4.664062 -3.476562 4.625 -3.4375 C 4.582031 -3.40625 4.535156 -3.390625 4.484375 -3.390625 L 1.40625 -3.390625 L 1.40625 -0.390625 Z M 4.9375 -0.390625" transform="translate(14.938 24.742)"/></g></g></g><g fill="#E3FF59"><g><g><path d="M 1.40625 -0.203125 C 1.40625 -0.148438 1.382812 -0.101562 1.34375 -0.0625 C 1.300781 -0.0195312 1.253906 0 1.203125 0 C 1.128906 0 1.070312 -0.0195312 1.03125 -0.0625 C 1 -0.101562 0.984375 -0.148438 0.984375 -0.203125 L 0.984375 -6.734375 C 0.984375 -6.796875 1.003906 -6.84375 1.046875 -6.875 C 1.085938 -6.914062 1.140625 -6.9375 1.203125 -6.9375 C 1.265625 -6.9375 1.3125 -6.914062 1.34375 -6.875 C 1.382812 -6.84375 1.40625 -6.796875 1.40625 -6.734375 Z M 1.40625 -0.203125" transform="translate(20.557 24.742)"/></g></g></g><g fill="#E3FF59"><g><g><path d="M 6.015625 -6.9375 C 6.078125 -6.9375 6.125 -6.921875 6.15625 -6.890625 C 6.1875 -6.859375 6.203125 -6.8125 6.203125 -6.75 L 6.203125 -0.21875 C 6.203125 -0.144531 6.179688 -0.0859375 6.140625 -0.046875 C 6.097656 -0.015625 6.050781 0 6 0 C 5.925781 0 5.867188 -0.0234375 5.828125 -0.078125 L 1.375 -6.1875 L 1.375 -0.171875 C 1.375 -0.117188 1.351562 -0.078125 1.3125 -0.046875 C 1.28125 -0.015625 1.238281 0 1.1875 0 C 1.125 0 1.070312 -0.015625 1.03125 -0.046875 C 1 -0.078125 0.984375 -0.117188 0.984375 -0.171875 L 0.984375 -6.75 C 0.984375 -6.8125 1 -6.859375 1.03125 -6.890625 C 1.070312 -6.921875 1.117188 -6.9375 1.171875 -6.9375 C 1.234375 -6.9375 1.28125 -6.914062 1.3125 -6.875 L 5.828125 -0.734375 L 5.828125 -6.75 C 5.828125 -6.8125 5.84375 -6.859375 5.875 -6.890625 C 5.914062 -6.921875 5.960938 -6.9375 6.015625 -6.9375 Z M 6.015625 -6.9375" transform="translate(22.956 24.742)"/></g></g></g><g fill="#E3FF59"><g><g><path d="M 6.046875 -3.421875 C 6.097656 -3.421875 6.140625 -3.398438 6.171875 -3.359375 C 6.210938 -3.316406 6.234375 -3.269531 6.234375 -3.21875 L 6.234375 -0.734375 C 6.234375 -0.648438 6.207031 -0.59375 6.15625 -0.5625 C 5.84375 -0.351562 5.503906 -0.191406 5.140625 -0.078125 C 4.785156 0.0351562 4.425781 0.09375 4.0625 0.09375 C 3.375 0.09375 2.757812 -0.0546875 2.21875 -0.359375 C 1.6875 -0.671875 1.265625 -1.097656 0.953125 -1.640625 C 0.648438 -2.179688 0.5 -2.789062 0.5 -3.46875 C 0.5 -4.15625 0.648438 -4.769531 0.953125 -5.3125 C 1.265625 -5.851562 1.6875 -6.273438 2.21875 -6.578125 C 2.757812 -6.890625 3.375 -7.046875 4.0625 -7.046875 C 4.425781 -7.046875 4.773438 -7 5.109375 -6.90625 C 5.441406 -6.820312 5.742188 -6.691406 6.015625 -6.515625 C 6.078125 -6.472656 6.109375 -6.414062 6.109375 -6.34375 C 6.109375 -6.28125 6.082031 -6.226562 6.03125 -6.1875 C 5.988281 -6.15625 5.945312 -6.140625 5.90625 -6.140625 C 5.875 -6.140625 5.832031 -6.15625 5.78125 -6.1875 C 5.226562 -6.488281 4.65625 -6.640625 4.0625 -6.640625 C 3.445312 -6.640625 2.898438 -6.503906 2.421875 -6.234375 C 1.953125 -5.960938 1.582031 -5.585938 1.3125 -5.109375 C 1.039062 -4.628906 0.90625 -4.082031 0.90625 -3.46875 C 0.90625 -2.863281 1.039062 -2.316406 1.3125 -1.828125 C 1.582031 -1.347656 1.953125 -0.972656 2.421875 -0.703125 C 2.898438 -0.429688 3.445312 -0.296875 4.0625 -0.296875 C 4.363281 -0.296875 4.671875 -0.34375 4.984375 -0.4375 C 5.296875 -0.53125 5.582031 -0.660156 5.84375 -0.828125 L 5.84375 -3.03125 L 4.0625 -3.03125 C 4.007812 -3.03125 3.960938 -3.046875 3.921875 -3.078125 C 3.878906 -3.117188 3.859375 -3.164062 3.859375 -3.21875 C 3.859375 -3.28125 3.878906 -3.328125 3.921875 -3.359375 C 3.960938 -3.398438 4.007812 -3.421875 4.0625 -3.421875 Z M 6.046875 -3.421875" transform="translate(30.141 24.742)"/></g></g></g><g fill="#FFF"><g><g><path d="M 13.378906 -8.972656 C 13.3125 -8.972656 13.246094 -8.945312 13.199219 -8.898438 C 11.273438 -6.875 7.449219 -5.421875 5.058594 -4.847656 C 5.035156 -4.839844 5.035156 -4.839844 5.027344 -4.847656 C 4.890625 -4.972656 4.722656 -5.0625 4.539062 -5.128906 C 6.15625 -6.933594 7.933594 -8.722656 9.492188 -10.03125 C 9.546875 -10.085938 9.574219 -10.148438 9.574219 -10.21875 C 9.574219 -10.351562 9.457031 -10.472656 9.324219 -10.472656 C 9.261719 -10.472656 9.203125 -10.449219 9.164062 -10.414062 C 7.527344 -9.03125 5.660156 -7.140625 3.972656 -5.253906 C 3.953125 -5.230469 3.945312 -5.230469 3.929688 -5.230469 C 2.992188 -5.226562 2.398438 -4.980469 2.398438 -4.574219 C 2.398438 -4.328125 2.601562 -4.167969 2.980469 -4.105469 C 1.265625 -2.089844 -0.0703125 -0.273438 -0.644531 0.820312 L -0.636719 0.8125 C -0.65625 0.847656 -0.671875 0.894531 -0.671875 0.9375 C -0.671875 1.070312 -0.550781 1.1875 -0.417969 1.1875 C -0.328125 1.1875 -0.238281 1.132812 -0.195312 1.054688 C 0.378906 -0.0507812 1.796875 -1.957031 3.601562 -4.058594 C 3.625 -4.078125 3.628906 -4.085938 3.644531 -4.085938 C 3.972656 -4.113281 4.40625 -4.191406 4.867188 -4.289062 C 4.890625 -4.292969 4.890625 -4.292969 4.890625 -4.289062 C 5.328125 -3.792969 5.574219 -2.953125 5.839844 -2.019531 C 6.308594 -0.414062 6.863281 1.449219 8.75 1.449219 C 10.351562 1.449219 11.90625 0.671875 12.269531 0.433594 C 12.339844 0.382812 12.378906 0.308594 12.378906 0.222656 C 12.378906 0.0898438 12.261719 -0.0273438 12.128906 -0.0273438 C 12.085938 -0.0273438 12.042969 -0.015625 11.996094 0.0078125 C 11.660156 0.230469 10.234375 0.945312 8.75 0.945312 C 7.234375 0.945312 6.796875 -0.550781 6.332031 -2.160156 C 6.09375 -2.980469 5.847656 -3.820312 5.421875 -4.414062 C 7.890625 -5.058594 11.640625 -6.519531 13.570312 -8.546875 C 13.613281 -8.601562 13.632812 -8.660156 13.632812 -8.722656 C 13.632812 -8.855469 13.511719 -8.972656 13.378906 -8.972656 Z M 4.175781 -4.707031 C 4.175781 -4.707031 4.183594 -4.707031 4.183594 -4.707031 L 4.289062 -4.6875 L 4.105469 -4.644531 L 4.113281 -4.652344 C 4.132812 -4.671875 4.15625 -4.695312 4.175781 -4.707031 Z M 3.300781 -4.574219 L 2.902344 -4.574219 C 2.902344 -4.582031 3.230469 -4.660156 3.484375 -4.695312 L 3.390625 -4.582031 C 3.378906 -4.574219 3.359375 -4.574219 3.300781 -4.574219 Z M 3.300781 -4.574219" transform="translate(39.648 23.725)"/></g></g></g><g fill="#FFF"><g><g><path d="M 0.40625 3.484375 C 2.34375 3.484375 7.863281 -0.0898438 11.023438 -2.386719 C 11.085938 -2.425781 11.128906 -2.503906 11.128906 -2.589844 C 11.128906 -2.726562 11.015625 -2.839844 10.875 -2.839844 C 10.820312 -2.839844 10.773438 -2.824219 10.730469 -2.789062 C 7.574219 -0.511719 2.1875 2.980469 0.40625 2.980469 C 0.0898438 2.980469 -0.015625 2.882812 -0.015625 2.589844 C -0.015625 1.691406 1.566406 0.140625 3.121094 -1.390625 C 4.492188 -2.742188 5.855469 -4.085938 5.855469 -4.882812 C 5.855469 -5.183594 5.582031 -5.421875 5.230469 -5.734375 C 5.128906 -5.820312 5.015625 -5.917969 4.910156 -6.023438 C 6.210938 -7.414062 6.980469 -8.484375 6.980469 -8.917969 C 6.980469 -9.199219 6.820312 -9.367188 6.546875 -9.367188 C 5.527344 -9.367188 3.292969 -7.652344 3.292969 -6.855469 C 3.292969 -6.582031 3.503906 -6.359375 4.148438 -5.929688 C 3.097656 -4.839844 1.820312 -3.671875 0.566406 -2.789062 C 0.496094 -2.742188 0.453125 -2.664062 0.453125 -2.582031 C 0.453125 -2.441406 0.566406 -2.328125 0.707031 -2.328125 C 0.761719 -2.328125 0.8125 -2.34375 0.851562 -2.378906 C 2 -3.191406 3.390625 -4.457031 4.558594 -5.660156 C 5.132812 -5.273438 5.351562 -5.0625 5.351562 -4.882812 C 5.351562 -4.300781 4.132812 -3.097656 2.761719 -1.75 C 1.210938 -0.21875 -0.519531 1.484375 -0.519531 2.589844 C -0.519531 3.160156 -0.1875 3.484375 0.40625 3.484375 Z M 4.492188 -6.300781 C 4.042969 -6.601562 3.796875 -6.804688 3.796875 -6.855469 C 3.796875 -7.308594 5.574219 -8.671875 6.300781 -8.828125 C 6.394531 -8.839844 6.449219 -8.804688 6.421875 -8.722656 C 6.230469 -8.269531 5.15625 -7.007812 4.492188 -6.300781 Z M 4.492188 -6.300781" transform="translate(50.166 23.725)"/></g></g></g><g fill="#FFF"><g><g><path d="M 2.292969 -4 C 2.371094 -4 2.449219 -4.035156 2.496094 -4.097656 C 2.519531 -4.132812 2.558594 -4.183594 2.601562 -4.246094 C 2.707031 -4.378906 2.832031 -4.554688 2.894531 -4.625 C 2.929688 -4.671875 2.953125 -4.726562 2.953125 -4.785156 C 2.953125 -4.925781 2.839844 -5.035156 2.699219 -5.035156 C 2.621094 -5.035156 2.554688 -5 2.503906 -4.945312 L 2.097656 -4.40625 C 2.0625 -4.363281 2.042969 -4.308594 2.042969 -4.253906 C 2.042969 -4.113281 2.15625 -4 2.292969 -4 Z M 0.265625 0.25 C 1.328125 0.25 4.6875 -1.300781 6.378906 -2.371094 C 6.449219 -2.414062 6.496094 -2.503906 6.496094 -2.589844 C 6.496094 -2.722656 6.378906 -2.839844 6.246094 -2.839844 C 6.203125 -2.839844 6.164062 -2.824219 6.113281 -2.804688 C 4.441406 -1.75 1.21875 -0.25 0.265625 -0.25 C -0.0507812 -0.25 -0.167969 -0.363281 -0.167969 -0.636719 C -0.167969 -1.0625 0.566406 -2.105469 1.636719 -3.203125 L 1.644531 -3.210938 C 1.6875 -3.257812 1.707031 -3.316406 1.707031 -3.378906 C 1.707031 -3.511719 1.585938 -3.628906 1.453125 -3.628906 C 1.386719 -3.628906 1.320312 -3.601562 1.273438 -3.554688 C 0.0429688 -2.28125 -0.671875 -1.21875 -0.671875 -0.636719 C -0.671875 -0.078125 -0.320312 0.25 0.265625 0.25 Z M 0.265625 0.25" transform="translate(60.32 23.725)"/></g></g></g><g fill="#FFF"><g><g><path d="M 12.878906 -7.386719 C 10.316406 -7.492188 7.667969 -7.484375 5.078125 -7.394531 C 6.765625 -9.34375 8.457031 -11.234375 10.105469 -13.039062 C 10.15625 -13.078125 10.175781 -13.144531 10.175781 -13.207031 C 10.175781 -13.347656 10.066406 -13.457031 9.925781 -13.457031 C 9.855469 -13.457031 9.785156 -13.429688 9.742188 -13.375 C 7.867188 -11.34375 6.085938 -9.335938 4.394531 -7.367188 C 1.582031 -7.246094 -1.167969 -7.023438 -3.644531 -6.707031 C -3.769531 -6.695312 -3.867188 -6.582031 -3.867188 -6.457031 C -3.867188 -6.316406 -3.757812 -6.203125 -3.617188 -6.203125 L -3.582031 -6.203125 C -1.265625 -6.503906 1.300781 -6.722656 3.953125 -6.839844 C 0.015625 -2.203125 -3.796875 2.726562 -6.796875 7.476562 C -6.855469 7.5625 -6.902344 7.652344 -6.933594 7.730469 L -6.933594 7.734375 C -7.007812 7.96875 -6.917969 8.113281 -6.695312 8.113281 C -6.53125 8.113281 -6.332031 7.925781 -6.121094 7.574219 C -6.0625 7.46875 -6.050781 7.371094 -6.09375 7.308594 C -3.070312 2.59375 0.726562 -2.289062 4.636719 -6.867188 C 7.429688 -6.988281 10.226562 -6.988281 12.855469 -6.882812 L 12.871094 -6.882812 C 13.011719 -6.882812 13.121094 -6.996094 13.121094 -7.132812 C 13.121094 -7.265625 13.015625 -7.378906 12.878906 -7.386719 Z M 12.878906 -7.386719" transform="translate(65.852 23.725)"/></g></g></g><g fill="#FFF"><g><g><path d="M 10.738281 -2.839844 C 10.695312 -2.839844 10.652344 -2.824219 10.605469 -2.804688 C 8.96875 -1.75 5.9375 -0.28125 4.566406 -0.28125 C 4.132812 -0.28125 3.945312 -0.425781 3.945312 -0.753906 C 3.945312 -1.015625 4.078125 -1.34375 4.226562 -1.71875 C 4.371094 -2.089844 4.539062 -2.496094 4.539062 -2.832031 C 4.539062 -3.15625 4.34375 -3.363281 4.027344 -3.363281 C 3.363281 -3.363281 2.132812 -2.503906 0.246094 -0.71875 C -0.308594 -0.195312 -0.832031 0.316406 -1.238281 0.714844 C -1.335938 0.8125 -1.40625 0.804688 -1.308594 0.65625 C -0.859375 -0.078125 -0.0976562 -1.125 0.921875 -2.421875 C 7.699219 -6.699219 14.082031 -13.925781 14.082031 -15.5625 C 14.082031 -15.933594 13.855469 -16.144531 13.464844 -16.144531 C 11.675781 -16.144531 -2.257812 -0.371094 -2.257812 1.644531 C -2.257812 1.824219 -2.121094 1.964844 -1.9375 1.964844 C -1.789062 1.964844 -1.652344 1.832031 -0.886719 1.070312 C -0.804688 0.984375 -0.714844 0.902344 -0.617188 0.8125 C -0.257812 0.460938 0.152344 0.0625 0.59375 -0.355469 C 2.132812 -1.8125 3.300781 -2.699219 3.890625 -2.839844 C 3.980469 -2.859375 4.035156 -2.804688 4.023438 -2.707031 C 3.988281 -2.476562 3.882812 -2.210938 3.761719 -1.917969 C 3.617188 -1.539062 3.441406 -1.113281 3.441406 -0.753906 C 3.441406 -0.140625 3.859375 0.222656 4.566406 0.222656 C 6.050781 0.222656 9.203125 -1.300781 10.875 -2.378906 C 10.945312 -2.425781 10.988281 -2.503906 10.988281 -2.589844 C 10.988281 -2.722656 10.871094 -2.839844 10.738281 -2.839844 Z M 13.464844 -15.640625 C 13.546875 -15.640625 13.578125 -15.613281 13.578125 -15.542969 C 13.578125 -14.21875 8.148438 -7.988281 1.953125 -3.699219 C 6.714844 -9.535156 12.597656 -15.640625 13.464844 -15.640625 Z M 13.464844 -15.640625" transform="translate(70.58 23.725)"/></g></g></g><g fill="#FFF"><g><g><path d="M 2.292969 -4 C 2.371094 -4 2.449219 -4.035156 2.496094 -4.097656 C 2.519531 -4.132812 2.558594 -4.183594 2.601562 -4.246094 C 2.707031 -4.378906 2.832031 -4.554688 2.894531 -4.625 C 2.929688 -4.671875 2.953125 -4.726562 2.953125 -4.785156 C 2.953125 -4.925781 2.839844 -5.035156 2.699219 -5.035156 C 2.621094 -5.035156 2.554688 -5 2.503906 -4.945312 L 2.097656 -4.40625 C 2.0625 -4.363281 2.042969 -4.308594 2.042969 -4.253906 C 2.042969 -4.113281 2.15625 -4 2.292969 -4 Z M 0.265625 0.25 C 1.328125 0.25 4.6875 -1.300781 6.378906 -2.371094 C 6.449219 -2.414062 6.496094 -2.503906 6.496094 -2.589844 C 6.496094 -2.722656 6.378906 -2.839844 6.246094 -2.839844 C 6.203125 -2.839844 6.164062 -2.824219 6.113281 -2.804688 C 4.441406 -1.75 1.21875 -0.25 0.265625 -0.25 C -0.0507812 -0.25 -0.167969 -0.363281 -0.167969 -0.636719 C -0.167969 -1.0625 0.566406 -2.105469 1.636719 -3.203125 L 1.644531 -3.210938 C 1.6875 -3.257812 1.707031 -3.316406 1.707031 -3.378906 C 1.707031 -3.511719 1.585938 -3.628906 1.453125 -3.628906 C 1.386719 -3.628906 1.320312 -3.601562 1.273438 -3.554688 C 0.0429688 -2.28125 -0.671875 -1.21875 -0.671875 -0.636719 C -0.671875 -0.078125 -0.320312 0.25 0.265625 0.25 Z M 0.265625 0.25" transform="translate(80.593 23.725)"/></g></g></g><g fill="#FFF"><g><g><path d="M 10.316406 -2.839844 C 10.273438 -2.839844 10.226562 -2.824219 10.183594 -2.804688 C 8 -1.484375 4.945312 0.1875 3.316406 0.1875 C 2.511719 0.1875 2 -0.476562 1.832031 -0.984375 C 4.113281 -1.363281 5.167969 -2.589844 5.253906 -3.078125 C 5.324219 -3.46875 5.015625 -3.75 4.527344 -3.75 C 3.441406 -3.75 2.050781 -2.847656 0.113281 -0.886719 C -0.488281 -0.28125 -1.40625 0.832031 -2.1875 1.796875 C -2.292969 1.929688 -2.355469 1.929688 -2.246094 1.761719 C -1.511719 0.664062 -0.433594 -0.777344 0.824219 -2.371094 C 7.535156 -6.679688 13.933594 -13.925781 13.933594 -15.5625 C 13.933594 -15.933594 13.710938 -16.144531 13.316406 -16.144531 C 11.882812 -16.144531 5.113281 -8.589844 0.546875 -2.785156 C 0.523438 -2.769531 0.519531 -2.757812 0.511719 -2.742188 C -2.195312 0.699219 -3.777344 3.050781 -3.777344 3.671875 C -3.777344 3.855469 -3.636719 3.992188 -3.457031 3.992188 C -3.324219 3.992188 -3.15625 3.820312 -2.664062 3.195312 L -2.421875 2.890625 C -1.574219 1.832031 -0.285156 0.230469 0.476562 -0.539062 C 2.289062 -2.371094 3.601562 -3.246094 4.527344 -3.246094 C 4.699219 -3.246094 4.734375 -3.210938 4.734375 -3.148438 C 4.734375 -2.953125 3.820312 -1.789062 1.628906 -1.460938 C 1.519531 -1.449219 1.441406 -1.40625 1.378906 -1.320312 C 1.300781 -1.230469 1.28125 -1.140625 1.300781 -1.035156 C 1.441406 -0.40625 2.167969 0.691406 3.316406 0.691406 C 5.070312 0.691406 8.253906 -1.050781 10.441406 -2.371094 C 10.519531 -2.414062 10.570312 -2.496094 10.570312 -2.589844 C 10.570312 -2.726562 10.457031 -2.839844 10.316406 -2.839844 Z M 13.316406 -15.640625 C 13.375 -15.640625 13.429688 -15.613281 13.429688 -15.535156 C 13.429688 -14.183594 8 -7.980469 1.867188 -3.679688 C 7.175781 -10.269531 12.3125 -15.640625 13.316406 -15.640625 Z M 13.316406 -15.640625" transform="translate(86.125 23.725)"/></g></g></g><g fill="#FFF"><g><g><path d="M 9.960938 -2.839844 C 9.90625 -2.839844 9.855469 -2.824219 9.8125 -2.789062 C 8.035156 -1.460938 5.246094 -0.414062 4.265625 -0.414062 C 3.761719 -0.414062 3.558594 -0.558594 3.558594 -0.917969 C 3.558594 -1.503906 4.058594 -2.230469 4.425781 -2.761719 C 4.652344 -3.085938 4.792969 -3.292969 4.792969 -3.457031 C 4.792969 -3.625 4.660156 -3.75 4.492188 -3.75 C 4.335938 -3.75 4.097656 -3.601562 3.308594 -3.027344 C 3.121094 -3.335938 2.867188 -3.460938 2.421875 -3.460938 C 1.316406 -3.460938 -1.59375 -1.644531 -1.59375 -0.53125 C -1.59375 -0.1875 -1.34375 0.0351562 -0.957031 0.0351562 C -0.0507812 0.0351562 1.953125 -1.425781 3.289062 -2.390625 C 3.386719 -2.460938 3.484375 -2.53125 3.574219 -2.601562 C 3.6875 -2.6875 3.734375 -2.636719 3.664062 -2.519531 C 3.351562 -2.015625 3.058594 -1.449219 3.058594 -0.917969 C 3.058594 -0.265625 3.484375 0.0898438 4.265625 0.0898438 C 5.398438 0.0898438 8.332031 -1.113281 10.101562 -2.378906 C 10.171875 -2.425781 10.210938 -2.503906 10.210938 -2.589844 C 10.210938 -2.722656 10.09375 -2.839844 9.960938 -2.839844 Z M 2.894531 -2.734375 C 1.140625 -1.460938 -0.285156 -0.46875 -0.957031 -0.46875 C -1.042969 -0.46875 -1.089844 -0.503906 -1.089844 -0.585938 C -1.089844 -1.238281 1.378906 -2.957031 2.421875 -2.957031 C 2.707031 -2.957031 2.789062 -2.917969 2.894531 -2.734375 Z M 2.894531 -2.734375" transform="translate(95.72 23.725)"/></g></g></g></svg>